<?xml version="1.0" standalone="no"?><!DOCTYPE svg PUBLIC "-//W3C//DTD SVG 1.1//EN" "http://www.w3.org/Graphics/SVG/1.1/DTD/svg11.dtd"><svg t="1704535250185" class="icon" viewBox="0 0 1024 1024" version="1.1" xmlns="http://www.w3.org/2000/svg" p-id="1494" xmlns:xlink="http://www.w3.org/1999/xlink" width="200" height="200"><path d="M77.695546 889.080148l129.204687 0L206.900234 671.669536 77.695546 777.61345 77.695546 889.080148zM294.687626 599.62878l0 289.450345 129.2272 0L423.914826 601.352027l-64.574714-54.663994L294.687626 599.62878zM728.751602 889.080148l129.229247 0L857.980849 423.463548 728.751602 534.100344 728.751602 889.080148zM511.74008 675.687036l0 213.393111 129.185244 0L640.925325 609.268324l-103.260805 88.388073L511.74008 675.687036zM695.211718 189.484585 800.332894 292.249087 537.665543 517.118578 359.340111 366.106212 76.963882 597.690638l0 100.04353 282.376229-231.582379 178.325431 150.990876 317.27711-271.557836 88.068801 86.108147L943.011454 189.484585 695.211718 189.484585z" fill="#1296db" p-id="1495"></path></svg>